<svg
  xmlns="http://www.w3.org/2000/svg"
  version="1.0"
  viewBox="0 0 360.000000 360.000000"
  preserveAspectRatio="xMidYMid meet"
>
  <g
    transform="translate(0.000000,360.000000) scale(0.100000,-0.100000)"
    fill="#202023"
    stroke="none"
  >
    <path d="M1365 2920 c-36 -14 -92 -86 -111 -141 -50 -145 -1 -375 104 -491 89 -99 193 -101 265 -6 56 74 76 226 47 350 -48 200 -190 335 -305 288z" />
    <path d="M2205 2915 c-49 -26 -74 -55 -109 -126 -79 -157 -71 -360 18 -495 130 -195 340 -59 363 236 15 199 -78 384 -199 397 -28 2 -53 -2 -73 -12z" />
    <path d="M660 2453 c-159 -83 -132 -411 50 -600 112 -117 231 -113 294 10 102 199 -64 571 -269 602 -28 4 -50 1 -75 -12z" />
    <path d="M2919 2416 c-162 -58 -309 -280 -309 -466 1 -156 112 -230 247 -165 122 60 238 218 269 367 19 91 11 153 -26 212 -40 62 -103 80 -181 52z" />
    <path d="M1750 1964 c-151 -42 -326 -149 -451 -273 -195 -195 -311 -450 -280 -617 28 -148 106 -257 226 -315 100 -48 158 -40 379 58 174 77 185 77 337 20 53 -20 125 -41 160 -46 199 -32 406 91 478 285 86 227 10 459 -221 680 -152 146 -298 214 -473 220 -69 2 -117 -1 -155 -12z" />
  </g>
</svg>
